<svg xmlns="http://www.w3.org/2000/svg" viewBox="0 0 256 249.69"><title>Asset 1</title><g id="Layer_2" data-name="Layer 2"><g id="Layer_1-2" data-name="Layer 1"><path d="M256,139c-1.63,8-2.66,16.11-5,23.86-12.36,41.33-38.87,69.74-79.09,85.29-9,3.47-12.15,1.19-12.11-8.22,0-7.83.08-15.66.1-23.49,0-17.56,0-17.56-7.42-31.75,5.32-1.14,10.7-2,15.93-3.45,24.37-6.67,37.62-22.42,40.5-47.43,1.9-16.46.2-31.89-10.85-45.25-.88-1.06-.76-3.4-.38-5,2.22-9.18,1.49-18.13-1.21-27.09-.92-3-2.55-3.86-5.43-3.61-10,.85-18.45,5.42-26.64,10.57a10.92,10.92,0,0,1-9.22,1.63C136.75,60.67,118.26,61,99.74,65c-2.25.49-5-.26-7.27-1.2-7.78-3.27-15.22-7.48-23.17-10.18-7.65-2.59-9.41-1.56-10.53,6.23a104.21,104.21,0,0,0-.43,22.69c.25,3.22.34,5.52-1.82,8.05-17.54,20.57-11.66,67,11.48,82,9.9,6.4,20.72,9.66,32.17,11.39,1.09.16,2.17.38,2.66.47-2.08,5.44-4,10.65-6.12,15.76a5.54,5.54,0,0,1-2.79,2.48c-12.82,5.56-25.6,1.46-33.78-10.06A48.16,48.16,0,0,0,48.8,181c-3-2.09-7.45-2.24-11.31-2.88a3.72,3.72,0,0,0-3.17,1.72c-.31.83.62,2.47,1.45,3.3,1.39,1.4,3.44,2.19,4.69,3.67,3.71,4.41,8.56,8.52,10.47,13.67,6.46,17.43,22.74,22.29,39.13,20l6-.83c0,8.47.28,16.61-.11,24.71-.23,4.73-4.65,6.4-10.52,4.33A123.62,123.62,0,0,1,45.77,226C20.14,204.09,5,176.42.9,142.83A35.11,35.11,0,0,0,0,139V117a33.76,33.76,0,0,0,.91-3.84,127.62,127.62,0,0,1,97-109.5C104.22,2.12,110.64,1.2,117,0h22a24.65,24.65,0,0,0,3.34.86c52.19,6.08,94.75,42.23,108.81,92.74,2.13,7.66,3.26,15.59,4.85,23.4Z"/></g></g></svg>